<?xml version="1.0" encoding="UTF-8"?>
<svg version="1.1" xmlns="http://www.w3.org/2000/svg" width="96" height="96">
<path d="M0 0 C31.68 0 63.36 0 96 0 C96 31.68 96 63.36 96 96 C64.32 96 32.64 96 0 96 C0 64.32 0 32.64 0 0 Z " fill="#020203" transform="translate(0,0)"/>
<path d="M0 0 C1.98 0 3.96 0 6 0 C6.33 10.89 6.66 21.78 7 33 C11.43120056 24.38655177 11.43120056 24.38655177 15.85449219 15.76904297 C16.41297852 14.68768066 16.97146484 13.60631836 17.546875 12.4921875 C18.11245117 11.39245605 18.67802734 10.29272461 19.26074219 9.15966797 C19.83469727 8.11697754 20.40865234 7.07428711 21 6 C21.5868457 4.87609863 22.17369141 3.75219727 22.77832031 2.59423828 C23.51147461 1.73813965 24.24462891 0.88204102 25 0 C27.31 0 29.62 0 32 0 C32 11.22 32 22.44 32 34 C32.66 34 33.32 34 34 34 C34.10054687 33.31067383 34.20109375 32.62134766 34.3046875 31.91113281 C35.13440183 28.43728673 36.51705272 25.61163141 38.125 22.421875 C38.43195801 21.80983215 38.73891602 21.19778931 39.05517578 20.56719971 C39.70128996 19.28166408 40.35026893 17.99756472 41.00195312 16.71484375 C42.00238895 14.7452969 42.99409801 12.77154615 43.984375 10.796875 C48.83623223 1.16376777 48.83623223 1.16376777 50 0 C52.33297433 -0.04092937 54.66705225 -0.04241723 57 0 C51.81646621 11.11713965 46.47844321 22.14994044 41 33.125 C40.42419189 34.28112793 39.84838379 35.43725586 39.25512695 36.62841797 C38.44821411 38.23934326 38.44821411 38.23934326 37.625 39.8828125 C37.14289062 40.84590332 36.66078125 41.80899414 36.1640625 42.80126953 C35 45 35 45 34 46 C31.69 46 29.38 46 27 46 C26.34 35.11 25.68 24.22 25 13 C20.94634144 20.49274022 20.94634144 20.49274022 16.89379883 27.98608398 C13.63213165 34.01127096 10.34485273 40.02056192 7 46 C4.69 46 2.38 46 0 46 C0 30.82 0 15.64 0 0 Z " fill="#A4D6F7" transform="translate(5,25)"/>
<path d="M0 0 C0.9075 -0.020625 1.815 -0.04125 2.75 -0.0625 C11.40199198 -0.11309644 11.40199198 -0.11309644 15.25 3.25 C17.08429431 8.98216973 15.82940546 13.96836026 13.25 19.25 C11.765625 21.015625 11.765625 21.015625 10.25 22.25 C9.59 22.25 8.93 22.25 8.25 22.25 C8.74628906 22.79914062 9.24257812 23.34828125 9.75390625 23.9140625 C12.43073597 28.0935512 11.23798513 32.5807552 10.25 37.25 C7.81434132 42.30173652 5.45189927 44.29010961 0.25 46.25 C-3.71661835 46.60697 -7.64657786 46.53304093 -11.625 46.4375 C-12.69492187 46.42396484 -13.76484375 46.41042969 -14.8671875 46.39648438 C-17.49531511 46.36128624 -20.12239194 46.31204693 -22.75 46.25 C-22.255 43.28 -22.255 43.28 -21.75 40.25 C-21.16508789 40.23018066 -20.58017578 40.21036133 -19.97753906 40.18994141 C-17.31791975 40.09446519 -14.65906162 39.98487858 -12 39.875 C-11.07960938 39.8440625 -10.15921875 39.813125 -9.2109375 39.78125 C-8.32148437 39.74257812 -7.43203125 39.70390625 -6.515625 39.6640625 C-5.69868164 39.6326416 -4.88173828 39.6012207 -4.04003906 39.56884766 C-1.53566295 39.22015734 0.12377466 38.61144718 2.25 37.25 C3.16599427 34.84595262 3.16599427 34.84595262 3.5 32.125 C3.7475 30.51625 3.995 28.9075 4.25 27.25 C-1.36 26.92 -6.97 26.59 -12.75 26.25 C-12.42 24.27 -12.09 22.29 -11.75 20.25 C-10.71359375 20.22421875 -9.6771875 20.1984375 -8.609375 20.171875 C-7.23954199 20.11558049 -5.86975195 20.05823345 -4.5 20 C-3.81808594 19.98582031 -3.13617188 19.97164062 -2.43359375 19.95703125 C0.94542854 19.79300104 2.94659412 19.4756095 5.6875 17.4375 C7.8052028 14.47271609 7.97445193 11.83212496 8.25 8.25 C4.95039859 6.6001993 1.25872116 6.86741639 -2.375 6.6875 C-3.17679688 6.64431641 -3.97859375 6.60113281 -4.8046875 6.55664062 C-6.7862511 6.45048543 -8.76810271 6.34973145 -10.75 6.25 C-10.792721 4.58388095 -10.79063832 2.91617115 -10.75 1.25 C-8.46239144 -1.03760856 -3.06971679 0.01714926 0 0 Z " fill="#A2D3F3" transform="translate(75.75,24.75)"/>
</svg>
