<?xml version="1.0" encoding="UTF-8"?>
<svg version="1.1" xmlns="http://www.w3.org/2000/svg" width="512" height="512">
<path d="M0 0 C168.96 0 337.92 0 512 0 C512 168.96 512 337.92 512 512 C343.04 512 174.08 512 0 512 C0 343.04 0 174.08 0 0 Z " fill="#FEA954" transform="translate(0,0)"/>
<path d="M0 0 C12.21 0 24.42 0 37 0 C37.33 60.39 37.66 120.78 38 183 C43.86347699 172.44574142 49.70420266 161.90460382 55.375 151.25 C56.67327295 148.81706299 57.97305166 146.38493327 59.2734375 143.953125 C59.59213806 143.35705444 59.91083862 142.76098389 60.23919678 142.14685059 C63.12900312 136.74780385 66.05860704 131.37106551 69 126 C73.54838566 117.69237591 78.0353179 109.35282214 82.5 101 C86.98679077 92.60625425 91.49475045 84.2250456 96.0625 75.875 C100.3392402 68.05594555 104.5877979 60.2223033 108.8125 52.375 C109.67790405 50.76794189 109.67790405 50.76794189 110.56079102 49.12841797 C113.72281595 43.25066907 116.87296498 37.36675715 120.01171875 31.4765625 C121.01619021 29.59378962 122.02082167 27.71110218 123.02548218 25.82843018 C123.96923191 24.05772834 124.91008036 22.28548112 125.85083008 20.51318359 C127.01002623 18.34026905 128.18968722 16.17811575 129.39208984 14.02880859 C131.04664049 11.05865788 131.04664049 11.05865788 132.15869141 7.99072266 C133.47993815 4.92908622 134.427857 3.14095453 137 1 C142.83740546 -0.23672523 148.44869283 0.05495284 154.375 0.375 C155.98553958 0.4251978 157.59622873 0.47081883 159.20703125 0.51171875 C163.14172695 0.62157735 167.06922073 0.79385134 171 1 C171.02283554 1.58056656 171.04567108 2.16113312 171.06919861 2.7592926 C171.31021716 8.87665485 171.5541058 14.99389817 171.79956055 21.11108398 C171.89044574 23.38514403 171.98063215 25.65923212 172.07006836 27.93334961 C172.19975896 31.22778061 172.33207711 34.52209794 172.46484375 37.81640625 C172.50343002 38.81080215 172.5420163 39.80519806 172.58177185 40.82972717 C172.79743918 46.11744887 173.0916964 51.38942989 173.47485352 56.66772461 C174.16436439 66.74464077 174.47292658 76.8350943 174.81594849 86.92874146 C174.93987196 90.56968973 175.06704797 94.21051196 175.19506836 97.85131836 C175.55807359 108.19125036 175.91526046 118.53138085 176.27050781 128.87158203 C176.48896453 135.22374555 176.71106428 141.57577355 176.93533325 147.92773438 C177.01969363 150.33897951 177.10261421 152.75027547 177.18405151 155.16162109 C177.2976895 158.52584421 177.41592646 161.88987733 177.53515625 165.25390625 C177.56739288 166.24310562 177.59962952 167.23230499 177.63284302 168.2514801 C177.66642914 169.17339645 177.70001526 170.09531281 177.73461914 171.04516602 C177.7618959 171.83778336 177.78917267 172.6304007 177.817276 173.44703674 C178.04718204 176.65921289 178.51769759 179.81701113 179 183 C190.67836737 160.41641896 202.18953245 137.75602465 213.53298306 115.00249624 C215.52590173 111.00640141 217.52161149 107.01170092 219.51707458 103.01687622 C224.53466344 92.97080499 229.54873515 82.9229801 234.5625 72.875 C240.03945257 61.89894437 245.51709866 50.92323712 250.99857181 39.94943821 C253.36178807 35.2180342 255.72305535 30.48566429 258.08280957 25.75253272 C259.53692118 22.83688477 260.99266523 19.92205422 262.4488678 17.0074501 C263.12483072 15.65364471 263.80009906 14.29949227 264.47463799 12.94497681 C265.39109985 11.10489289 266.31022436 9.26613581 267.22950745 7.42745972 C268.00054731 5.88204907 268.00054731 5.88204907 268.78716373 4.30541801 C270 2 270 2 271 1 C273.73894085 0.91141354 276.4525327 0.88476521 279.19140625 0.90234375 C280.01124496 0.9037587 280.83108368 0.90517365 281.67576599 0.90663147 C284.30471382 0.91224711 286.93357773 0.92480221 289.5625 0.9375 C291.34049357 0.94251299 293.11848846 0.94707624 294.89648438 0.95117188 C299.26435545 0.96222161 303.63216348 0.97949669 308 1 C306.48089497 6.03450791 304.36048661 10.55485772 302 15.23046875 C301.60482178 16.02036697 301.20964355 16.8102652 300.80249023 17.62409973 C299.96380971 19.2984464 299.1231904 20.97182315 298.28076172 22.64428711 C297.02775423 25.13238832 295.78090363 27.62349175 294.53515625 30.11523438 C290.5138339 38.13964381 286.42703946 46.12280502 282.21875 54.05078125 C275.75071141 66.25152582 269.64656678 78.63521621 263.5 91 C250.4657596 117.22042031 250.4657596 117.22042031 245.03125 127.4375 C238.43967587 139.83185497 232.24921065 152.43082977 226 165 C212.25263716 192.65036312 212.25263716 192.65036312 205.48904419 205.38435364 C201.1412414 213.58087703 197.00525438 221.87978118 192.875 230.1875 C190.27625 235.405625 187.6775 240.62375 185 246 C173.12 246 161.24 246 149 246 C147.87500358 237.00002863 147.87500358 237.00002863 147.71011353 233.47569275 C147.65145803 232.27072726 147.65145803 232.27072726 147.59161758 231.04141903 C147.55316601 230.18720143 147.51471443 229.33298384 147.47509766 228.45288086 C147.43094601 227.52763139 147.38679436 226.60238192 147.34130478 225.64909458 C147.19595558 222.5878082 147.05499893 219.5263362 146.9140625 216.46484375 C146.81176498 214.29169453 146.70918954 212.11855838 146.60635376 209.94543457 C146.38865927 205.33307923 146.17287613 200.72064003 145.95861816 196.10812378 C145.62516289 188.9307295 145.28705306 181.7535592 144.94824219 174.57641602 C144.08218789 156.21144858 143.22409432 137.84611097 142.37199974 119.48049068 C142.09263946 113.46037359 141.81163804 107.44033475 141.52927589 101.4203577 C141.31625324 96.87341465 141.10806223 92.32626505 140.90087891 87.77905273 C140.79346002 85.476392 140.68588662 83.17373847 140.578125 80.87109375 C140.53354156 79.86767944 140.48895813 78.86426514 140.44302368 77.83044434 C140.18969929 72.50536056 139.73766106 67.28048845 139 62 C138.65855957 62.63276855 138.31711914 63.26553711 137.96533203 63.91748047 C132.03392538 74.9039955 126.09489196 85.88465486 120.01538086 96.79003906 C116.05608221 103.89249607 112.11775744 111.00644322 108.1875 118.125 C107.84429718 118.74656982 107.50109436 119.36813965 107.14749146 120.00854492 C101.88590103 129.54188646 96.68055504 139.10446919 91.50585938 148.68530273 C87.64864281 155.82055443 83.73066938 162.919405 79.78125 170.00390625 C76.2341498 176.36883343 72.70938388 182.74609717 69.1875 189.125 C68.84429718 189.74656982 68.50109436 190.36813965 68.14749146 191.00854492 C62.89762685 200.52064076 57.70231562 210.06108522 52.54101562 219.62158203 C47.76705118 228.45583039 42.89525239 237.23238378 38 246 C26.12 246 14.24 246 2 246 C0.87099153 206.5226534 0.68847873 167.05004586 0.48259127 127.55954683 C0.43804836 119.05671035 0.38894946 110.55390318 0.33933926 102.05109501 C0.290976 93.75892473 0.24446122 85.46674421 0.1983273 77.17456126 C0.18389769 74.58960502 0.16927147 72.00464995 0.15463066 69.4196949 C0.0245675 46.27936896 -0.01703046 23.14076829 0 0 Z " fill="#232322" transform="translate(23,133)"/>
<path d="M0 0 C2.9324319 -0.00222304 5.86450718 -0.02059664 8.796875 -0.03930664 C27.50826564 -0.09665397 44.58679827 1.374022 58.67578125 15.02905273 C67.2586517 24.17443689 69.65796307 34.56423822 69.37890625 46.82592773 C68.83892398 55.07935944 66.75125433 63.01068312 64.7109375 70.99780273 C64.52565491 71.74184357 64.34037231 72.4858844 64.1494751 73.25247192 C59.12967011 93.16703177 50.73083336 109.90183667 32.7734375 121.18530273 C30.02348198 122.74880578 29.00952514 123.18530273 25.7734375 123.18530273 C25.7734375 123.84530273 25.7734375 124.50530273 25.7734375 125.18530273 C26.4540625 125.35030273 27.1346875 125.51530273 27.8359375 125.68530273 C36.2830068 129.99869982 40.8843826 139.51813803 43.7734375 148.18530273 C44.77549339 162.58627744 42.80464093 175.38208041 38.7734375 189.18530273 C38.46116211 190.27512451 38.46116211 190.27512451 38.14257812 191.38696289 C32.51661815 210.66361378 21.85929237 227.36481251 3.97265625 237.38061523 C-16.03246556 248.02885435 -35.79910291 249.5705569 -58.0390625 249.49780273 C-59.10183411 249.49697693 -60.16460571 249.49615112 -61.25958252 249.49530029 C-76.58233102 249.4680993 -91.82177696 248.95976194 -107.1015625 247.81030273 C-107.94965485 247.74726959 -108.79774719 247.68423645 -109.67153931 247.61929321 C-118.61161701 246.93659001 -127.44474613 246.07352657 -136.2265625 244.18530273 C-135.62589013 241.41367237 -135.02108726 238.64304302 -134.4140625 235.87280273 C-134.24841797 235.10645508 -134.08277344 234.34010742 -133.91210938 233.55053711 C-132.93841497 229.12298332 -131.85622997 224.74343541 -130.65356445 220.37207031 C-130.25171684 218.90849846 -130.25171684 218.90849846 -129.8417511 217.4153595 C-129.63873886 216.67944077 -129.43572662 215.94352203 -129.2265625 215.18530273 C-128.05051453 215.17943649 -126.87446655 215.17357025 -125.66278076 215.16752625 C-114.54098132 215.11013603 -103.41937434 215.03728995 -92.29777145 214.94958782 C-86.58101582 214.9049962 -80.86432962 214.86571561 -75.14746094 214.83886719 C-69.62301592 214.81272214 -64.09883971 214.77224125 -58.57456207 214.72211647 C-56.47445284 214.70552323 -54.37429719 214.69396226 -52.27413177 214.68768883 C-36.40527413 214.63552192 -19.74339949 214.3377933 -7.05859375 203.29858398 C-0.13004107 195.77910996 2.6210411 187.14785953 5.0234375 177.37280273 C5.2915625 176.35637695 5.5596875 175.33995117 5.8359375 174.29272461 C7.76933657 166.55419617 9.67457775 158.20694558 6.1484375 150.74780273 C-0.00145587 144.11239146 -6.67246903 141.97886317 -15.4375 141.12670898 C-16.66972794 141.00242271 -16.66972794 141.00242271 -17.92684937 140.87562561 C-29.20753888 139.81352301 -40.5318639 139.50444969 -51.8515625 139.12280273 C-55.19788573 139.00645305 -58.54411113 138.88814391 -61.89022827 138.76600647 C-63.95034181 138.69113431 -66.01058211 138.61963951 -68.07095337 138.55223083 C-73.8369942 138.34646203 -79.49996885 137.8944181 -85.2265625 137.18530273 C-84.58178169 130.84125247 -83.26409919 124.85239093 -81.6640625 118.68530273 C-81.31311523 117.30858398 -81.31311523 117.30858398 -80.95507812 115.90405273 C-80.38322535 113.6633235 -79.80697957 111.42382586 -79.2265625 109.18530273 C-71.13578403 108.30338459 -63.08233118 107.98235671 -54.94857788 107.79742432 C-43.09113748 107.51684223 -31.25115788 107.06571365 -19.4140625 106.31030273 C-18.2605127 106.24399658 -17.10696289 106.17769043 -15.91845703 106.109375 C-3.87597568 105.28369045 10.3180553 103.29226732 19.0859375 94.12280273 C27.45746451 83.1101179 31.75033434 65.454415 31.1484375 51.70483398 C30.43552613 46.91496074 28.83543683 43.92613287 25.04296875 40.72436523 C17.7546126 35.69088973 9.52338688 34.89071069 0.85717773 34.86645508 C-0.40300423 34.85138664 -0.40300423 34.85138664 -1.68864441 34.83601379 C-4.43174633 34.80542478 -7.17475178 34.78821497 -9.91796875 34.77124023 C-11.83325517 34.752509 -13.74853351 34.73293415 -15.6638031 34.71255493 C-20.67944554 34.66143428 -25.69511468 34.62170167 -30.71087646 34.58441162 C-35.83921809 34.54424556 -40.96745059 34.49321096 -46.09570312 34.44311523 C-56.13924603 34.34659381 -66.18285085 34.26211358 -76.2265625 34.18530273 C-75.95739014 33.11658936 -75.68821777 32.04787598 -75.41088867 30.94677734 C-75.05122537 29.51457815 -74.69160873 28.08236723 -74.33203125 26.65014648 C-74.1553894 25.9493396 -73.97874756 25.24853271 -73.79675293 24.52648926 C-72.38358831 18.89171893 -71.08607502 13.23839047 -69.83984375 7.56420898 C-69.2265625 5.18530273 -69.2265625 5.18530273 -68.2265625 4.18530273 C-64.35624933 3.51411461 -60.44064455 3.13386254 -56.5390625 2.68530273 C-54.9622168 2.49000977 -54.9622168 2.49000977 -53.35351562 2.29077148 C-35.65309809 0.23282511 -17.80198297 -0.00150762 0 0 Z " fill="#242322" transform="translate(420.2265625,131.814697265625)"/>
<path d="M0 0 C0.33 0 0.66 0 1 0 C1 13.53 1 27.06 1 41 C-12.53 41 -26.06 41 -40 41 C-36.77794772 39.38897386 -33.66489916 38.09649079 -30.3125 36.8125 C-16.32964928 30.99481758 -7.86955879 20.70813891 -2 7 C-1.17794005 4.65968578 -0.55034658 2.42152494 0 0 Z " fill="#000000" transform="translate(511,471)"/>
<path d="M0 0 C1.61102614 3.22205228 2.90350921 6.33510084 4.1875 9.6875 C10.00518242 23.67035072 20.29186109 32.13044121 34 38 C36.34031422 38.82205995 38.57847506 39.44965342 41 40 C41 40.33 41 40.66 41 41 C27.47 41 13.94 41 0 41 C0 27.47 0 13.94 0 0 Z " fill="#000000" transform="translate(0,471)"/>
<path d="M0 0 C13.53 0 27.06 0 41 0 C41 13.53 41 27.06 41 41 C39.38897386 37.77794772 38.09649079 34.66489916 36.8125 31.3125 C30.99481758 17.32964928 20.70813891 8.86955879 7 3 C4.65968578 2.17794005 2.42152494 1.55034658 0 1 C0 0.67 0 0.34 0 0 Z " fill="#000000" transform="translate(471,0)"/>
<path d="M0 0 C13.53 0 27.06 0 41 0 C37.77794772 1.61102614 34.66489916 2.90350921 31.3125 4.1875 C17.32964928 10.00518242 8.86955879 20.29186109 3 34 C2.17794005 36.34031422 1.55034658 38.57847506 1 41 C0.67 41 0.34 41 0 41 C0 27.47 0 13.94 0 0 Z " fill="#000000" transform="translate(0,0)"/>
</svg>
