<svg xmlns="http://www.w3.org/2000/svg" version="1.1" xmlns:xlink="http://www.w3.org/1999/xlink" viewBox="0 0 23.6376930387814 5.663075091557924"><g transform="matrix(0.6987305128468764,0,0,0.6987305128468764,7.8989268522351965,2.1254532436496283)"><g transform="matrix(1,0,0,1,0,0)" clip-path="url(#SvgjsClipPath44966)"><g clip-path="url(#SvgjsClipPath44964031c61e3-7664-4a36-ad3d-4025474a1a5c)"><path d=" M -0.7099248523298369 -0.600147707014823 L -4.587996949060002 -0.600147707014823 C -4.808765046191594 -0.600147707014823 -4.98792180138984 -0.4209909518165775 -4.98792180138984 -0.1999604260405491 L -4.98792180138984 0.022382242957657894 L -0.31003280358055374 0.022382242957657894 L -0.31003280358055374 -0.1999604260405491 C -0.31003280358055374 -0.4209909518165775 -0.4891895587787989 -0.600147707014823 -0.709957655910392 -0.600147707014823 Z" fill="#212121" transform="matrix(1,0,0,1,0,0)" fill-rule="nonzero"></path></g><g clip-path="url(#SvgjsClipPath44964031c61e3-7664-4a36-ad3d-4025474a1a5c)"><path d=" M -4.987905399599563 0.11460950968655437 L -4.987905399599563 2.2212718546849857 C -4.987905399599563 2.4420399518165787 -4.808748644401317 2.621196707014824 -4.587980547269725 2.621196707014824 L -0.7099248523298369 2.621196707014824 C -0.48915675519824475 2.621196707014824 -0.3099999999999996 2.4420399518165787 -0.3099999999999996 2.2212718546849857 L -0.3099999999999996 0.11460950968655437 L -4.987905399599563 0.11460950968655437 Z" fill="#212121" transform="matrix(1,0,0,1,0,0)" fill-rule="nonzero"></path></g><g clip-path="url(#SvgjsClipPath44964031c61e3-7664-4a36-ad3d-4025474a1a5c)"><path d=" M -4.396374833251057 -0.26492791732867976 C -4.396374833251057 -0.21393784901198726 -4.437710442404924 -0.17260223985812012 -4.488700510721617 -0.17260223985812012 C -4.539690579038309 -0.17260223985812012 -4.581026188192177 -0.21393784901198726 -4.581026188192177 -0.26492791732867976 C -4.581026188192177 -0.3159179856453723 -4.539690579038309 -0.35725359479923946 -4.488700510721617 -0.35725359479923946 C -4.437710442404924 -0.35725359479923946 -4.396374833251057 -0.3159179856453723 -4.396374833251057 -0.26492791732867976 Z" fill="#769687" transform="matrix(1,0,0,1,0,0)" fill-rule="nonzero"></path></g><g clip-path="url(#SvgjsClipPath44964031c61e3-7664-4a36-ad3d-4025474a1a5c)"><path d=" M -3.96084169422934 -0.35725359479923946 C -4.011834860201266 -0.35725359479923946 -4.0531673716998995 -0.3159210833006054 -4.0531673716998995 -0.26492791732867976 C -4.0531673716998995 -0.21393475135675416 -4.011834860201266 -0.17260223985812012 -3.96084169422934 -0.17260223985812012 C -3.909848528257415 -0.17260223985812012 -3.8685160167587807 -0.21393475135675416 -3.8685160167587807 -0.26492791732867976 C -3.8685160167587807 -0.3159210833006054 -3.909848528257415 -0.35725359479923946 -3.96084169422934 -0.35725359479923946 Z" fill="#769687" transform="matrix(1,0,0,1,0,0)" fill-rule="nonzero"></path></g><g clip-path="url(#SvgjsClipPath44964031c61e3-7664-4a36-ad3d-4025474a1a5c)"><path d=" M -3.3406407984762265 -0.26492791732867976 C -3.3406407984762265 -0.21393784901198726 -3.381976407630094 -0.17260223985812012 -3.4329664759467864 -0.17260223985812012 C -3.483956544263479 -0.17260223985812012 -3.525292153417346 -0.21393784901198726 -3.525292153417346 -0.26492791732867976 C -3.525292153417346 -0.3159179856453723 -3.483956544263479 -0.35725359479923946 -3.4329664759467864 -0.35725359479923946 C -3.381976407630094 -0.35725359479923946 -3.3406407984762265 -0.3159179856453723 -3.3406407984762265 -0.26492791732867976 Z" fill="#769687" transform="matrix(1,0,0,1,0,0)" fill-rule="nonzero"></path></g><g clip-path="url(#SvgjsClipPath44964031c61e3-7664-4a36-ad3d-4025474a1a5c)"><path d=" M -3.2629783215135153 2.032831686189824 L -3.2629783215135153 1.5691530750523708 L -3.5409886667126607 1.3513044965901266 L -3.2629783215135153 1.1334559181278818 L -3.2629783215135153 0.6700069320543101 L -4.13309329572087 1.3513044965901266 L -3.2629783215135153 2.032831686189824 Z" fill="#769687" transform="matrix(1,0,0,1,0,0)" fill-rule="nonzero"></path></g><g clip-path="url(#SvgjsClipPath44964031c61e3-7664-4a36-ad3d-4025474a1a5c)"><path d=" M -2.0349598816666012 0.6700069320543101 L -2.0349598816666012 1.1334559181278818 L -1.756965938257733 1.3513044965901266 L -2.0349598816666012 1.5691530750523708 L -2.0349598816666012 2.032831686189824 L -1.1648285056689693 1.3513044965901266 L -2.0349598816666012 0.6700069320543101 Z" fill="#769687" transform="matrix(1,0,0,1,0,0)" fill-rule="nonzero"></path></g><g clip-path="url(#SvgjsClipPath44964031c61e3-7664-4a36-ad3d-4025474a1a5c)"><path d=" M -2.2172329770175216 0.4059545103810922 L -2.829971058194493 2.2968841078630424 L -3.080688824372318 2.2968841078630424 L -2.4676883145509105 0.4059545103810922 L -2.2172329770175216 0.4059545103810922 Z" fill="#769687" transform="matrix(1,0,0,1,0,0)" fill-rule="nonzero"></path></g></g><g><path d=" M 1.972713 0.08156700000000061 L 2.495346 0.08156700000000061 L 2.0844899999999997 2.0210490000000005 L 1.477269 2.0210490000000005 L 1.262778 0.8640060000000007 L 1.048287 2.0210490000000005 L 0.44106599999999996 2.0210490000000005 L 0.030209999999999997 0.08156700000000061 L 0.580032 0.08156700000000061 L 0.743166 1.3866390000000006 L 1.002972 0.08156700000000061 L 1.519563 0.08156700000000061 L 1.779369 1.3866390000000006 L 1.972713 0.08156700000000061 M 3.0996019947070312 0.5135700000000005 L 3.468163994707031 0.5135700000000005 Q 3.9122509947070307 0.5135700000000005 3.9122509947070307 0.8881740000000007 L 3.9122509947070307 1.4017440000000005 L 3.1418959947070313 1.4017440000000005 L 3.1418959947070313 1.6011300000000006 Q 3.1418959947070313 1.6675920000000006 3.217420994707031 1.6675920000000006 L 3.350344994707031 1.6675920000000006 Q 3.425869994707031 1.6675920000000006 3.425869994707031 1.5950880000000005 L 3.425869994707031 1.5105000000000006 L 3.9122509947070307 1.5105000000000006 L 3.9122509947070307 1.6464450000000006 Q 3.9122509947070307 2.0210490000000005 3.468163994707031 2.0210490000000005 L 3.0996019947070312 2.0210490000000005 Q 2.655514994707031 2.0210490000000005 2.655514994707031 1.6464450000000006 L 2.655514994707031 0.8881740000000007 Q 2.655514994707031 0.5135700000000005 3.0996019947070312 0.5135700000000005 M 3.1418959947070313 1.1238120000000005 L 3.425869994707031 1.1238120000000005 L 3.425869994707031 0.9334890000000007 Q 3.425869994707031 0.8670270000000007 3.350344994707031 0.8670270000000007 L 3.217420994707031 0.8670270000000007 Q 3.1418959947070313 0.8670270000000007 3.1418959947070313 0.9334890000000007 L 3.1418959947070313 1.1238120000000005 M 4.927392491367187 0.5135700000000005 L 4.981770491367187 0.5135700000000005 Q 5.3835634913671875 0.5135700000000005 5.3835634913671875 0.8881740000000007 L 5.3835634913671875 1.6464450000000006 Q 5.3835634913671875 2.0210490000000005 4.981770491367187 2.0210490000000005 L 4.927392491367187 2.0210490000000005 Q 4.694775491367187 2.0210490000000005 4.652481491367187 1.8277050000000006 L 4.652481491367187 2.0210490000000005 L 4.147974491367187 2.0210490000000005 L 4.147974491367187 4.440892098500626e-16 L 4.661544491367187 4.440892098500626e-16 L 4.661544491367187 0.6767040000000006 Q 4.718943491367187 0.5135700000000005 4.927392491367187 0.5135700000000005 M 4.869993491367187 1.5769620000000006 L 4.869993491367187 0.9576570000000006 Q 4.869993491367187 0.8911950000000006 4.794468491367187 0.8911950000000006 L 4.743111491367187 0.8911950000000006 Q 4.661544491367187 0.8911950000000006 4.661544491367187 0.9818250000000006 L 4.661544491367187 1.5527940000000005 Q 4.661544491367187 1.6434240000000004 4.743111491367187 1.6434240000000004 L 4.794468491367187 1.6434240000000004 Q 4.869993491367187 1.6434240000000004 4.869993491367187 1.5769620000000006 M 6.283893712148437 1.6222770000000006 L 6.283893712148437 1.5014370000000006 Q 6.283893712148437 1.4349750000000006 6.208368712148436 1.4349750000000006 L 6.024087712148437 1.4349750000000006 Q 5.589063712148437 1.4349750000000006 5.589063712148437 1.0633920000000006 L 5.589063712148437 0.8881740000000007 Q 5.589063712148437 0.5135700000000005 6.033150712148437 0.5135700000000005 L 6.3141037121484365 0.5135700000000005 Q 6.758190712148437 0.5135700000000005 6.758190712148437 0.8881740000000007 L 6.758190712148437 1.0150560000000006 L 6.268788712148437 1.0150560000000006 L 6.268788712148437 0.9123420000000007 Q 6.268788712148437 0.8458800000000006 6.193263712148436 0.8458800000000006 L 6.163053712148437 0.8458800000000006 Q 6.087528712148437 0.8458800000000006 6.087528712148437 0.9123420000000007 L 6.087528712148437 1.0452660000000007 Q 6.087528712148437 1.1117280000000007 6.163053712148437 1.1117280000000007 L 6.347334712148436 1.1117280000000007 Q 6.5799517121484365 1.1117280000000007 6.681155212148436 1.2068895000000006 Q 6.7823587121484366 1.3020510000000005 6.7823587121484366 1.4802900000000005 L 6.7823587121484366 1.6464450000000006 Q 6.7823587121484366 2.0210490000000005 6.338271712148437 2.0210490000000005 L 6.0422137121484365 2.0210490000000005 Q 5.598126712148437 2.0210490000000005 5.598126712148437 1.6464450000000006 L 5.598126712148437 1.5225840000000006 L 6.096591712148436 1.5225840000000006 L 6.096591712148436 1.6222770000000006 Q 6.096591712148436 1.6887390000000004 6.172116712148437 1.6887390000000004 L 6.208368712148436 1.6887390000000004 Q 6.283893712148437 1.6887390000000004 6.283893712148437 1.6222770000000006 M 7.00901625861328 0.3625200000000006 L 7.00901625861328 4.440892098500626e-16 L 7.54071225861328 4.440892098500626e-16 L 7.54071225861328 0.3625200000000006 L 7.00901625861328 0.3625200000000006 M 7.53164925861328 2.0210490000000005 L 7.01807925861328 2.0210490000000005 L 7.01807925861328 0.5135700000000005 L 7.53164925861328 0.5135700000000005 L 7.53164925861328 2.0210490000000005 M 8.57697567861328 0.8911950000000006 L 8.38665267861328 0.8911950000000006 L 8.38665267861328 1.5769620000000006 Q 8.38665267861328 1.6434240000000004 8.46217767861328 1.6434240000000004 L 8.57395467861328 1.6434240000000004 L 8.57395467861328 2.0210490000000005 L 8.31716967861328 2.0210490000000005 Q 7.8730826786132795 2.0210490000000005 7.8730826786132795 1.6464450000000006 L 7.8730826786132795 0.8911950000000006 L 7.70692767861328 0.8911950000000006 L 7.70692767861328 0.5135700000000005 L 7.8730826786132795 0.5135700000000005 L 7.8730826786132795 0.2175120000000006 L 8.38665267861328 0.2175120000000006 L 8.38665267861328 0.5135700000000005 L 8.57697567861328 0.5135700000000005 L 8.57697567861328 0.8911950000000006 M 9.181171194316406 0.5135700000000005 L 9.549733194316405 0.5135700000000005 Q 9.993820194316404 0.5135700000000005 9.993820194316404 0.8881740000000007 L 9.993820194316404 1.4017440000000005 L 9.223465194316406 1.4017440000000005 L 9.223465194316406 1.6011300000000006 Q 9.223465194316406 1.6675920000000006 9.298990194316405 1.6675920000000006 L 9.431914194316406 1.6675920000000006 Q 9.507439194316404 1.6675920000000006 9.507439194316404 1.5950880000000005 L 9.507439194316404 1.5105000000000006 L 9.993820194316404 1.5105000000000006 L 9.993820194316404 1.6464450000000006 Q 9.993820194316404 2.0210490000000005 9.549733194316405 2.0210490000000005 L 9.181171194316406 2.0210490000000005 Q 8.737084194316406 2.0210490000000005 8.737084194316406 1.6464450000000006 L 8.737084194316406 0.8881740000000007 Q 8.737084194316406 0.5135700000000005 9.181171194316406 0.5135700000000005 M 9.223465194316406 1.1238120000000005 L 9.507439194316404 1.1238120000000005 L 9.507439194316404 0.9334890000000007 Q 9.507439194316404 0.8670270000000007 9.431914194316406 0.8670270000000007 L 9.298990194316405 0.8670270000000007 Q 9.223465194316406 0.8670270000000007 9.223465194316406 0.9334890000000007 L 9.223465194316406 1.1238120000000005 M 10.712903690976562 0.5256540000000007 L 10.712903690976562 0.7159770000000005 L 10.184228690976562 0.7159770000000005 L 10.184228690976562 0.45617100000000055 Q 10.184228690976562 0.08156700000000061 10.628315690976562 0.08156700000000061 L 10.999898690976561 0.08156700000000061 Q 11.443985690976561 0.08156700000000061 11.443985690976561 0.45617100000000055 L 11.443985690976561 0.6918090000000006 Q 11.443985690976561 0.9546360000000007 11.298977690976562 1.0331820000000005 Q 11.383565690976562 1.0694340000000007 11.41377569097656 1.1434485000000008 Q 11.443985690976561 1.2174630000000006 11.443985690976561 1.3443450000000006 L 11.443985690976561 1.6464450000000006 Q 11.443985690976561 2.0210490000000005 10.999898690976561 2.0210490000000005 L 10.628315690976562 2.0210490000000005 Q 10.184228690976562 2.0210490000000005 10.184228690976562 1.6464450000000006 L 10.184228690976562 1.3866390000000006 L 10.712903690976562 1.3866390000000006 L 10.712903690976562 1.5769620000000006 Q 10.712903690976562 1.6434240000000004 10.788428690976561 1.6434240000000004 L 10.848848690976562 1.6434240000000004 Q 10.924373690976562 1.6434240000000004 10.924373690976562 1.5769620000000006 L 10.924373690976562 1.2778830000000005 Q 10.924373690976562 1.2114210000000005 10.848848690976562 1.2114210000000005 L 10.60414769097656 1.2114210000000005 L 10.60414769097656 0.8640060000000007 L 10.848848690976562 0.8640060000000007 Q 10.924373690976562 0.8640060000000007 10.924373690976562 0.7975440000000007 L 10.924373690976562 0.5256540000000007 Q 10.924373690976562 0.4591920000000007 10.848848690976562 0.4591920000000007 L 10.788428690976561 0.4591920000000007 Q 10.712903690976562 0.4591920000000007 10.712903690976562 0.5256540000000007 M 12.462092133925779 1.5769620000000006 L 12.462092133925779 0.5256540000000007 Q 12.462092133925779 0.4591920000000007 12.38656713392578 0.4591920000000007 L 12.30500013392578 0.4591920000000007 Q 12.22947513392578 0.4591920000000007 12.22947513392578 0.5256540000000007 L 12.22947513392578 1.5769620000000006 Q 12.22947513392578 1.6434240000000004 12.30500013392578 1.6434240000000004 L 12.38656713392578 1.6434240000000004 Q 12.462092133925779 1.6434240000000004 12.462092133925779 1.5769620000000006 M 12.990767133925779 0.45617100000000055 L 12.990767133925779 1.6464450000000006 Q 12.990767133925779 2.0210490000000005 12.54668013392578 2.0210490000000005 L 12.14488713392578 2.0210490000000005 Q 11.70080013392578 2.0210490000000005 11.70080013392578 1.6464450000000006 L 11.70080013392578 0.45617100000000055 Q 11.70080013392578 0.08156700000000061 12.14488713392578 0.08156700000000061 L 12.54668013392578 0.08156700000000061 Q 12.990767133925779 0.08156700000000061 12.990767133925779 0.45617100000000055 M 14.014875749238279 1.5769620000000006 L 14.014875749238279 0.5256540000000007 Q 14.014875749238279 0.4591920000000007 13.93935074923828 0.4591920000000007 L 13.85778374923828 0.4591920000000007 Q 13.782258749238279 0.4591920000000007 13.782258749238279 0.5256540000000007 L 13.782258749238279 1.5769620000000006 Q 13.782258749238279 1.6434240000000004 13.85778374923828 1.6434240000000004 L 13.93935074923828 1.6434240000000004 Q 14.014875749238279 1.6434240000000004 14.014875749238279 1.5769620000000006 M 14.543550749238278 0.45617100000000055 L 14.543550749238278 1.6464450000000006 Q 14.543550749238278 2.0210490000000005 14.099463749238279 2.0210490000000005 L 13.697670749238279 2.0210490000000005 Q 13.25358374923828 2.0210490000000005 13.25358374923828 1.6464450000000006 L 13.25358374923828 0.45617100000000055 Q 13.25358374923828 0.08156700000000061 13.697670749238279 0.08156700000000061 L 14.099463749238279 0.08156700000000061 Q 14.543550749238278 0.08156700000000061 14.543550749238278 0.45617100000000055 M 15.567659364550778 1.5769620000000006 L 15.567659364550778 0.5256540000000007 Q 15.567659364550778 0.4591920000000007 15.492134364550779 0.4591920000000007 L 15.41056736455078 0.4591920000000007 Q 15.335042364550779 0.4591920000000007 15.335042364550779 0.5256540000000007 L 15.335042364550779 1.5769620000000006 Q 15.335042364550779 1.6434240000000004 15.41056736455078 1.6434240000000004 L 15.492134364550779 1.6434240000000004 Q 15.567659364550778 1.6434240000000004 15.567659364550778 1.5769620000000006 M 16.096334364550778 0.45617100000000055 L 16.096334364550778 1.6464450000000006 Q 16.096334364550778 2.0210490000000005 15.652247364550778 2.0210490000000005 L 15.250454364550778 2.0210490000000005 Q 14.806367364550779 2.0210490000000005 14.806367364550779 1.6464450000000006 L 14.806367364550779 0.45617100000000055 Q 14.806367364550779 0.08156700000000061 15.250454364550778 0.08156700000000061 L 15.652247364550778 0.08156700000000061 Q 16.096334364550778 0.08156700000000061 16.096334364550778 0.45617100000000055" fill="#212121" fill-rule="nonzero"></path></g><g></g></g><defs><clipPath id="SvgjsClipPath44966"><path d=" M -4.98792180138984 -0.6001477070148231 h 4.67792180138984 v 3.2213444140296468 h -4.67792180138984 Z"></path></clipPath><clipPath id="SvgjsClipPath44964031c61e3-7664-4a36-ad3d-4025474a1a5c"><path d=" M -4.98792180138984 -0.6001477070148231 L -0.3099999999999996 -0.6001477070148231 L -0.3099999999999996 2.621196707014824 L -4.98792180138984 2.621196707014824 Z"></path></clipPath></defs></svg>